<?xml version="1.0" standalone="no"?>
<!DOCTYPE svg PUBLIC "-//W3C//DTD SVG 20010904//EN"
 "http://www.w3.org/TR/2001/REC-SVG-20010904/DTD/svg10.dtd">
<svg version="1.0" xmlns="http://www.w3.org/2000/svg"
 width="150.000000pt" height="150.000000pt" viewBox="0 0 150.000000 150.000000"
 preserveAspectRatio="xMidYMid meet">
<metadata>
Created by potrace 1.14, written by Peter Selinger 2001-2017
</metadata>
<g transform="translate(0.000000,150.000000) scale(0.100000,-0.100000)"
fill="#000000" stroke="none">
<path d="M634 1305 c-65 -107 -126 -208 -135 -223 -9 -15 -60 -99 -112 -186
-88 -144 -95 -160 -79 -171 31 -21 147 -90 152 -90 3 -1 25 -13 50 -28 25 -16
90 -54 145 -87 l99 -58 46 26 c160 93 415 243 418 247 2 2 -12 29 -32 59 -20
31 -36 59 -36 62 0 2 -5 10 -10 17 -13 15 -280 457 -280 463 0 3 -5 10 -11 17
-6 7 -30 43 -53 80 l-43 69 -119 -197z"/>
<path d="M296 639 c6 -8 44 -61 85 -119 41 -58 79 -112 86 -120 7 -8 55 -76
107 -150 52 -74 99 -139 103 -145 5 -5 24 -31 43 -58 18 -26 37 -44 41 -40 4
5 51 69 103 143 52 74 99 140 103 145 10 11 87 120 106 149 6 10 17 24 23 30
5 6 30 40 55 75 24 35 51 73 59 84 14 19 14 20 -10 7 -14 -7 -52 -30 -85 -50
-33 -20 -80 -48 -105 -62 -25 -14 -93 -54 -153 -88 -96 -56 -109 -61 -125 -48
-9 8 -28 20 -42 26 -14 7 -34 18 -45 25 -11 7 -49 29 -85 50 -36 21 -72 42
-80 47 -19 12 -171 101 -185 108 -6 3 -5 -1 1 -9z"/>
</g>
</svg>
